<?xml version="1.0" encoding="utf-8"?>
<!-- Generator: Adobe Illustrator 16.0.0, SVG Export Plug-In . SVG Version: 6.00 Build 0)  -->
<!DOCTYPE svg PUBLIC "-//W3C//DTD SVG 1.1//EN" "http://www.w3.org/Graphics/SVG/1.1/DTD/svg11.dtd">
<svg version="1.1" id="Layer_1" xmlns="http://www.w3.org/2000/svg" xmlns:xlink="http://www.w3.org/1999/xlink" x="0px" y="0px"
	 width="512px" height="512px" viewBox="0 0 512 512" enable-background="new 0 0 512 512" xml:space="preserve">
<path fill="#07A0C3" d="M462.49,468.206l-33.937,33.937c-6.063,6.031-23.812,9.843-24.343,9.843c-107.435,0.906-210.869-41.279-286.883-117.309
	C41.096,318.46-1.137,214.619,0.035,106.872c0-0.063,3.891-17.312,9.938-23.312l33.937-33.968
	c12.453-12.437,36.295-18.062,52.998-12.5l7.156,2.406c16.703,5.562,34.155,23.999,38.78,40.967l17.093,62.717
	c4.64,17-1.594,41.186-14.031,53.623l-22.687,22.687c22.25,82.467,86.919,147.122,169.339,169.402l22.687-22.687
	c12.438-12.438,36.687-18.656,53.687-14.031l62.717,17.125c16.937,4.594,35.374,22.03,40.968,38.748l2.375,7.156
	C480.552,431.926,474.928,455.769,462.49,468.206z M287.995,255.993h31.999c0-35.343-28.655-63.998-63.998-63.998v31.999
	C273.636,223.994,287.995,238.368,287.995,255.993z M415.991,255.993c0-88.373-71.623-159.996-159.995-159.996v32
	c70.592,0,127.996,57.436,127.996,127.996H415.991z M255.996,0v31.999c123.496,0,223.993,100.497,223.993,223.994h31.999
	C511.988,114.622,397.367,0,255.996,0z"/>
</svg>
